<?xml version="1.0" encoding="UTF-8" standalone="no"?>
<!-- Created with Inkscape (http://www.inkscape.org/) -->

<svg
   xmlns:dc="http://purl.org/dc/elements/1.1/"
   xmlns:cc="http://creativecommons.org/ns#"
   xmlns:rdf="http://www.w3.org/1999/02/22-rdf-syntax-ns#"
   xmlns:svg="http://www.w3.org/2000/svg"
   xmlns="http://www.w3.org/2000/svg"
   xmlns:sodipodi="http://sodipodi.sourceforge.net/DTD/sodipodi-0.dtd"
   xmlns:inkscape="http://www.inkscape.org/namespaces/inkscape"
   id="svg2985"
   version="1.1"
   inkscape:version="0.48.0 r9654"
   width="1185"
   height="1181"
   sodipodi:docname="shamrock.svg"
   inkscape:export-filename="/home/akv/Projects/erdetstpatricksday.dk/shamrock.png"
   inkscape:export-xdpi="2.4538341"
   inkscape:export-ydpi="2.4538341">
  <metadata
     id="metadata2991">
    <rdf:RDF>
      <cc:Work
         rdf:about="">
        <dc:format>image/svg+xml</dc:format>
        <dc:type
           rdf:resource="http://purl.org/dc/dcmitype/StillImage" />
        <dc:title></dc:title>
      </cc:Work>
    </rdf:RDF>
  </metadata>
  <defs
     id="defs2989" />
  <sodipodi:namedview
     pagecolor="#ffffff"
     bordercolor="#666666"
     borderopacity="1"
     objecttolerance="10"
     gridtolerance="10"
     guidetolerance="10"
     inkscape:pageopacity="0"
     inkscape:pageshadow="2"
     inkscape:window-width="1280"
     inkscape:window-height="723"
     id="namedview2987"
     showgrid="false"
     inkscape:zoom="0.21761219"
     inkscape:cx="487.08537"
     inkscape:cy="432.00032"
     inkscape:window-x="0"
     inkscape:window-y="24"
     inkscape:window-maximized="1"
     inkscape:current-layer="svg2985" />
  <path
     style="fill:#005500;fill-opacity:1;stroke:#000000;stroke-width:50;stroke-linecap:square;stroke-linejoin:round;stroke-miterlimit:4;stroke-opacity:1;stroke-dasharray:none"
     d="M 567.83086,1149.3184 C 534.32126,1045.7358 481.62236,954.14661 513.40356,809.75721 357.32316,1053.3879 21.333656,982.05481 126.72619,715.52495 152.61325,674.4798 161.42775,645.12979 117.79037,597.73458 -5.5838239,501.95631 72.294716,59.281652 494.71956,496.19116 c -3.2048,-29.31779 -33.8852,-95.9662 -92.6076,-145.41018 -112.6674,-73.12655 -73.5098,-459.7299 190.9016,-276.198118 63.2632,51.960768 98.8862,33.701328 144.5979,11.37287 172.2582,-90.6240799 364.51144,116.063598 -27.6198,422.420638 52.4435,-16.96501 91.6818,-53.73483 140.5361,-84.48413 218.66684,-124.13009 360.73684,115.40548 229.08204,229.89431 -41.2964,42.02193 -69.5176,87.84687 -59.3014,173.02996 12.7558,262.24999 -264.35194,220.67199 -391.55154,-4.8741 -1.1897,107.2856 7.9867,205.04279 121.8521,303.00559 -76.5754,-62.2985 -131.9372,-29.136 -182.7781,24.3704 z"
     id="path2995"
     inkscape:connector-curvature="0"
     sodipodi:nodetypes="ccccccccccccccc" />
</svg>
